<mxfile host="app.diagrams.net" modified="2024-05-06T10:25:16.792Z" agent="Mozilla/5.0 (Windows NT 10.0; Win64; x64) AppleWebKit/537.36 (KHTML, like Gecko) Chrome/124.0.0.0 Safari/537.36" version="24.3.1" etag="Xu_e65-yAo5Yvs55t8rD" type="github">
  <diagram name="Page-1" id="dvpPiT5H-qQ7arXEEvHh">
    <mxGraphModel>
      <root>
        <mxCell id="0" />
        <mxCell id="1" parent="0" />
      </root>
    </mxGraphModel>
  </diagram>
</mxfile>
